{"title":"Amusement *2008* [DVDRip.XviD-miguel] [ENG]","uid":6299703,"size":315152866,"categoryP":"video","categoryS":"movies","magnet":"?xt=urn:btih:3d83429c8499031d21dee304ef69160756e7fa2c&amp;dn=Amusement+%2A2008%2A+%5BDVDRip.XviD-miguel%5D+%5BENG%5D&amp;tr=udp%3A%2F%2Ftracker.openbittorrent.com%3A80&amp;tr=udp%3A%2F%2Fopen.demonii.com%3A1337&amp;tr=udp%3A%2F%2Ftracker.coppersurfer.tk%3A6969&amp;tr=udp%3A%2F%2Fexodus.desync.com%3A6969","seeders":6,"leechers":2,"uploader":"miguel1983","files":-1,"time":1302114990,"description":" &lt;a href=&quot;http://img828.imageshack.us/img828/613/amusement2008.jpg&quot; rel=&quot;nofollow&quot; target=&quot;_NEW&quot;&gt;http://img828.imageshack.us/img828/613/amusement2008.jpg&lt;/a&gt;\n\nCountry.......: USA\nGenre.........: Horror, Thriller\nDate release..: 24.04.2008 [World]\nDirector......: John Simpson\nWriters.......: Jake Wade Wall\nDuration......: 85 min.\nMore..........: http://www.imdb.com/title/tt0476958\nTrailer.......: http://www.imdb.com/video/screenplay/vi3115712793\nTrailer.......:\n\nPilot :\nThe film shows a woman who had a hard childhood. She was tortured, interrogated, and accused knockouts. After some time, a childhood nightmare of persecution and ill return. What happens if some psycho out to get her?\n\nCats :\nKeir O'Donnell \t... \tThe Laugh\nKatheryn Winnick \t... \tTabitha\nLaura Breckenridge \t... \tShelby\nJessica Lucas \t... \tLisa\nTad Hilgenbrink \t... \tRob (as Tad Hilgenbrinck)\nReid Scott \t... \tDan\nRena Owen \t... \tPsychiatrist\nKevin Gage \t... \tTryton\nBrennan Bailey \t... \tDanny\nPreston Bailey \t... \tMax\nShauna Duggins \t... \tWoman In Truck\nFernanda Dorogi \t... \tCat\nEyad Kurd Misto \t... \tChild Laugh\nKarley Scott Collins \t... \tChild Tabitha\nJadin Gould \t... \tChild Shelby \n\nData Technical :\n!!! SAMPLE !!!\nAudio.....: English\nSubtitles.: None\nFormat                           : AVI\nFormat/Info                      : Audio Video Interleave\nFile size                        : 299 MiB\nDuration                         : 1h 24mn\nOverall bit rate                 : 493 Kbps\nWriting application              : VirtualDubMod 1.5.10.2 (build 2542/release)\nWriting library                  : VirtualDubMod build 2542/release\nVideo\nID                               : 0\nFormat                           : MPEG-4 Visual\nFormat profile                   : Advanced Simple@L5\nFormat settings, BVOP            : Yes\nFormat settings, QPel            : No\nFormat settings, GMC             : No warppoints\nFormat settings, Matrix          : Default (H.263)\nMuxing mode                      : Packed bitstream\nCodec ID                         : XVID\nCodec ID/Hint                    : XviD\nDuration                         : 1h 24mn\nBit rate                         : 350 Kbps\nWidth                            : 640 pixels\nHeight                           : 360 pixels\nDisplay aspect ratio             : 16:9\nFrame rate                       : 23.976 fps\nColor space                      : YUV\nChroma subsampling               : 4:2:0\nBit depth                        : 8 bits\nScan type                        : Progressive\nBits/(Pixel*Frame)               : 0.063\nStream size                      : 212 MiB (71%)\nWriting library                  : XviD 1.2.1\nAudio\nID                               : 1\nFormat                           : MPEG Audio\nFormat version                   : Version 1\nFormat profile                   : Layer 3\nMode                             : Joint stereo\nCodec ID                         : 55\nCodec ID/Hint                    : MP3\nDuration                         : 1h 24mn\nBit rate mode                    : Variable\nBit rate                         : 131 Kbps\nChannel(s)                       : 2 channels\nSampling rate                    : 48.0 KHz\nStream size                      : 79.1 MiB (26%)\nAlignment                        : Aligned on interleaves\nInterleave, duration             : 24 ms (0.58 video frame)\nInterleave, preload duration     : 123 ms\n\nScreen : &lt;a href=&quot;\nhttp://img140.imageshack.us/img140/5224/amusement2008s4.jpg&quot; rel=&quot;nofollow&quot; target=&quot;_NEW&quot;&gt;\nhttp://img140.imageshack.us/img140/5224/amusement2008s4.jpg&lt;/a&gt; &lt;a href=&quot;\nhttp://img535.imageshack.us/img535/2144/amusement2008s1.jpg&quot; rel=&quot;nofollow&quot; target=&quot;_NEW&quot;&gt;\nhttp://img535.imageshack.us/img535/2144/amusement2008s1.jpg&lt;/a&gt; &lt;a href=&quot;\nhttp://img690.imageshack.us/img690/3545/amusement2008s2.jpg&quot; rel=&quot;nofollow&quot; target=&quot;_NEW&quot;&gt;\nhttp://img690.imageshack.us/img690/3545/amusement2008s2.jpg&lt;/a&gt; &lt;a href=&quot;\nhttp://img840.imageshack.us/img840/7649/amusement2008s3.jpg&quot; rel=&quot;nofollow&quot; target=&quot;_NEW&quot;&gt;\nhttp://img840.imageshack.us/img840/7649/amusement2008s3.jpg&lt;/a&gt;","torrent":{"xt":"urn:btih:3d83429c8499031d21dee304ef69160756e7fa2c","amp;dn":"Amusement+%2A2008%2A+%5BDVDRip.XviD-miguel%5D+%5BENG%5D","amp;tr":["udp%3A%2F%2Ftracker.openbittorrent.com%3A80","udp%3A%2F%2Fopen.demonii.com%3A1337","udp%3A%2F%2Ftracker.coppersurfer.tk%3A6969","udp%3A%2F%2Fexodus.desync.com%3A6969"],"infoHash":"3d83429c8499031d21dee304ef69160756e7fa2c","infoHashBuffer":{"type":"Buffer","data":[61,131,66,156,132,153,3,29,33,222,227,4,239,105,22,7,86,231,250,44]},"announce":[],"urlList":[]}}